# xmcd CD database file
#
# Track frame offsets:
#	150
#	22779
#	43833
#	64426
#	82503
#	93312
#	123773
#	147981
#	159424
#
# Disc length: 2453 seconds
#
# Revision: 0
# Processed by: cddbd v1.5.2PL0 Copyright (c) Steve Scherf et al.
# Submitted via: CDex 1.70beta2
#
DISCID=66099309
DTITLE=Aphrodesia - Indigo
DYEAR=2007
DGENRE=Jazz
TTITLE0=Superstar
TTITLE1=Wind Song
TTITLE2=Late Night, Late Love
TTITLE3=Jovina
TTITLE4=I Leave You Tonight
TTITLE5=Calling You
TTITLE6=I Feel Happy Today
TTITLE7=Sing To The Stars Above
TTITLE8=Walk Away
EXTD=YEAR: 2007
EXTT0=
EXTT1=
EXTT2=
EXTT3=
EXTT4=
EXTT5=
EXTT6=
EXTT7=
EXTT8=
PLAYORDER=
